<?xml version="1.0" encoding="UTF-8" standalone="no"?>
<svg
   width="39.016132"
   height="39.018124"
   viewBox="0 0 39.016132 39.018124"
   fill="none"
   version="1.1"
   id="svg42"
   sodipodi:docname="logo.szwx.svg"
   inkscape:export-filename="C:\Users\kejiangm\Downloads\d2r\logo.szwx.png"
   inkscape:export-xdpi="96"
   inkscape:export-ydpi="96"
   inkscape:version="1.1.2 (b8e25be833, 2022-02-05)"
   xmlns:inkscape="http://www.inkscape.org/namespaces/inkscape"
   xmlns:sodipodi="http://sodipodi.sourceforge.net/DTD/sodipodi-0.dtd"
   xmlns="http://www.w3.org/2000/svg"
   xmlns:svg="http://www.w3.org/2000/svg">
  <sodipodi:namedview
     id="namedview44"
     pagecolor="#ffffff"
     bordercolor="#666666"
     borderopacity="1.0"
     inkscape:pageshadow="2"
     inkscape:pageopacity="0.0"
     inkscape:pagecheckerboard="0"
     showgrid="false"
     inkscape:zoom="11.811321"
     inkscape:cx="51.13738"
     inkscape:cy="19.642173"
     inkscape:window-width="2224"
     inkscape:window-height="1392"
     inkscape:window-x="861"
     inkscape:window-y="305"
     inkscape:window-maximized="0"
     inkscape:current-layer="svg42" />
  <g
     clip-path="url(#clip0_406_41457)"
     id="g35"
     transform="translate(-0.447266,-0.375977)">
    <mask
       id="mask0_406_41457"
       maskUnits="userSpaceOnUse"
       x="0"
       y="0"
       width="40"
       height="40">
      <path
         d="M 19.1185,0.724117 0.793472,19.0492 c -0.461608,0.4616 -0.461608,1.212 0,1.6736 L 19.1185,39.0479 c 0.4616,0.4616 1.2121,0.4616 1.6737,0 l 18.325,-18.3251 c 0.4616,-0.4616 0.4616,-1.212 0,-1.6736 L 20.7922,0.724117 c -0.2321,-0.232094 -0.5338,-0.34814 -0.8381,-0.34814 -0.3043,0 -0.6061,0.116046 -0.8381,0.34814"
         fill="#ffffff"
         id="path2" />
    </mask>
    <g
       mask="url(#mask0_406_41457)"
       id="g17">
      <path
         d="M 19.9571,-0.117304 -0.0429688,19.8828 19.9571,39.8829 39.9573,19.8828 Z"
         fill="#c2dbff"
         id="path5" />
      <path
         d="M 19.9538,39.886 -0.0449219,19.8847 19.9538,-0.114014 Z"
         fill="#9fbee8"
         id="path7" />
      <path
         d="M -0.0449219,19.8847 19.9538,-0.114014 39.9551,19.8847 Z"
         fill="#e6effb"
         id="path9" />
      <path
         d="M 19.9538,39.886 -0.0449219,19.8847 19.9538,-0.114014 Z"
         fill="#96a7cb"
         id="path11" />
      <path
         d="M 19.9538,39.886 -0.0449219,19.8847 19.9538,-0.114014 Z"
         fill="#d0e4ff"
         id="path13" />
      <path
         d="M 19.9538,-0.114014 -0.0449219,19.8847 H 19.9538 Z"
         fill="#bed5ff"
         id="path15" />
    </g>
    <path
       d="m 11.8457,19.4024 8.1078,1.1863 V 7.54248 L 11.8457,18.6108 Z"
       fill="#10d2ff"
       id="path19" />
    <path
       d="m 28.0654,19.4024 -8.1103,1.1863 V 7.54248 l 8.1103,11.06832 z"
       fill="#88f4ff"
       id="path21" />
    <path
       d="m 11.8867,20.3696 8.1078,-1.1863 V 32.2296 L 11.8867,21.1613 Z"
       fill="#02acff"
       id="path23" />
    <path
       d="M 28.1065,20.3696 19.9961,19.1833 V 32.2296 L 28.1065,21.1613 Z"
       fill="#007ae7"
       id="path25" />
    <path
       d="m 30.554,19.7738 -10.5989,-0.557 v 6.1144 L 30.554,20.1426 Z"
       fill="#411db2"
       id="path27" />
    <path
       d="m 9.35742,19.7738 10.59638,-0.557 v 6.1144 L 9.35742,20.1426 Z"
       fill="#7c4ffb"
       id="path29" />
    <path
       d="m 9.35742,19.9516 10.59638,0.637 V 13.5923 L 9.35742,19.5287 Z"
       fill="#af5ffe"
       id="path31" />
    <path
       d="m 30.554,19.9519 -10.5989,0.637 V 13.5925 L 30.554,19.529 Z"
       fill="#c0a0ff"
       id="path33" />
  </g>
  <defs
     id="defs40">
    <clipPath
       id="clip0_406_41457">
      <rect
         width="106"
         height="40"
         fill="#ffffff"
         id="rect37"
         x="0"
         y="0" />
    </clipPath>
  </defs>
</svg>
